<svg xmlns="http://www.w3.org/2000/svg" data-name="Layer 1" width="728.25213" height="598.94536" viewBox="0 0 728.25213 598.94536" xmlns:xlink="http://www.w3.org/1999/xlink"><path d="M680.42277,276.56094l-46.83-34.37c-1.41-1.02-2.83-2.04-4.25-3.06a242.00078,242.00078,0,0,0-42.19-23.04,238.00075,238.00075,0,0,0-81.94-19.22c-132.46,0-239.97,103.8-239.97,231.94,0,58.64,22.46,112.18,59.59,153.46q4.77,5.31,9.89,10.31c-21.41-59.88-5.24-132-11.84-197.78-4.12-42.98,4.76-99.47,56.33-123.71a80.32313,80.32313,0,0,1,31.3-6.23c26.67.27,53.15,22.92,49.76,59.21-1.72,18.73-15.87,33.27-32.18,35.54s-34.58-7.79-38.08-23.93c-3.17-14.64,6.9-28.77,20.85-33.52s29.62-1.02,42.86,5.58c63.55,31.36,69.12,134.74,30.5,186.96C444.122,528.22094,536.13281,600.12,645.32277,600.14h.79c3.75-.05,7.49-.23,11.21-.54,107.98-8.89,194.9-100.19,198.58-213.96A225.75246,225.75246,0,0,0,680.42277,276.56094Z" transform="translate(-235.87393 -150.52732)" fill="#f2f2f2"/><path d="M726.042,382.80282a242.47932,242.47932,0,0,0-48.34-95.14l-46.38-34.17a257.63728,257.63728,0,0,0-25.51,46.65,244.52716,244.52716,0,0,0-12.51033,42.11c-.85,3.81-1.59,7.63-2.23,11.48q-.82506,4.965-1.49,9.97c-.45,3.37-.83,6.75-1.15,10.14-.18,1.9-.34,3.8-.48,5.7a238.55248,238.55248,0,0,0,.7,45.11c.31006,3.27.69006,6.53,1.14,9.78.22,1.63.46,3.25.72,4.86.85,5.32,1.87,10.59,3.05,15.82a232.63045,232.63045,0,0,0,30.98,75.02c3.96,6.45,8.17,12.67,12.65,18.65-8.98-25.15-13.3-56.36-14.27-80.31-.97-23.95,5.15-41.9,10.97-42.19,5.82-.29,12.28,17.1,13.25,41.05.98,23.95-13.02,66.33-5.03,90.29l333.23,149.04c2.65-10.67,4.64-21.32,5.88-32.02v-.13C991.24205,528.2228,953.60208,399.58282,726.042,382.80282Z" transform="translate(-235.87393 -150.52732)" fill="#f2f2f2"/><path d="M820.01,349.85277c2.09-4.8,4.05-9.61,5.88-14.41l-59.81-43.97c-7.53,4.88-14.46,9.83-21.14,15.13a237.66889,237.66889,0,0,0-71.73,92.49c-.4082.92005-.80066,1.83-.23975.54-.79,1.8-1.55,3.6-2.28,5.41-.86,2.12-1.68018,4.27-2.47,6.41-.65967,1.75-1.28955,3.52-1.8999,5.28-.74,2.12-1.43994,4.25-2.1001,6.39-.52,1.68-1.02,3.36-1.5,5.06q-1.3395,4.59-2.47,9.24c-.14991.61-.29,1.22-.43,1.83-.27.27-.14013.14-.04.05-.1001.51-.21.99-.3,1.47-.36011,1.75-.70019,3.5-1.01025,5.25-.31982,1.75-.62988,3.51-.91992,5.27-.63,3.65-1.16,7.31-1.62012,10.99-.18994,1.49-.36,2.98-.52,4.47-.1499,1.37-.29,2.74-.42,4.11-.07007.71-.14013,1.42-.21,2.13-.30005,3.14-.53,6.3-.66992,9.46-.13989,3.04-.21,6.08-.21,9.13,0,1.46.01,2.91.03,4.37.01,1.08.03,2.16.06,3.23.05,1.64.09985,3.28.16992,4.91.04.97.09985,1.93.16,2.89.06983,1.21.1499,2.41.23,3.61.25,3.74.60986,7.46,1.06,11.15.9834.79.20019,1.58.31,2.37.32984,2.35.69971,4.69,1.1001,7.02.31982,1.85.66,3.69,1.03,5.52.1499.75.29.99.15.51.12012.55.25.1.38.16.41016,1.89.84009,3.77,1.31,5.64.62988,2.67,1.33008,5.32,2.07,7.93.33008,1.18669.67,2.38,1.01025,3.551a232.2603,232.2603,0,0,0,45.48,85.83c-8.39-28.75-12.89-60.18-13.41-90.23-.1-5.71-.06983-11.39.0498-17.02.24024-8.66.75-17.18,1.51026-25.53a348.03574,348.03574,0,0,1,6.96-46.94A320.90243,320.90243,0,0,1,820.01,349.85277Z" transform="translate(-235.87393 -150.52732)" fill="#f2f2f2"/><path d="M716.8025,451.20191c.392,29.16.05,62.77-5.78,91.55.29-.44,145.43-93.31,147.64006-105.38,3.46-18.8-175.94006-5.08-175.94006-5.08C690.79251,437.05194,716.41248,422.04192,716.8025,451.20191Z" transform="translate(-235.87393 -150.52732)" fill="#e6e6e6"/><path d="M716.8025,451.20191c.392,29.16.05,62.77-5.78,91.55.29-.44,145.43-93.31,147.64006-105.38,3.46-18.8-175.94006-5.08-175.94006-5.08C690.79251,437.05194,716.41248,422.04192,716.8025,451.20191Z" transform="translate(-235.87393 -150.52732)" opacity="0.2"/><path d="M713.01721,446.06439c.3595,26.77.0459,57.65-5.31009,84.08.26636-.404,133.58785-85.68481,135.62418-96.76175,3.17811-17.26785-161.59823-4.66555-161.59823-4.66555C689.15642,433.11322,712.65771,419.2966,713.01721,446.06439Z" transform="translate(-235.87393 -150.52732)" fill="#00b98e"/><circle cx="393.5" cy="224" r="60" fill="#ccc"/><circle cx="394" cy="224" r="36" fill="#fff"/><path d="M627.12607,374.52732h4v-48h-4a91.881,91.881,0,0,0-3.5,26A93.51,93.51,0,0,0,627.12607,374.52732Z" transform="translate(-235.87393 -150.52732)" fill="#ccc"/><path d="M599.12607,374.52732h-4v-48h4a91.881,91.881,0,0,1,3.5,26A93.51,93.51,0,0,1,599.12607,374.52732Z" transform="translate(-235.87393 -150.52732)" fill="#ccc"/><ellipse cx="393.62607" cy="224" rx="19.5" ry="51" fill="#e6e6e6"/><path d="M799.87,398.93c-.13,26.3-.41,70.36-.41,71.57,0,.82,0,1.61.03,2.38.04,1.72.13,2.98.26,3.75.13.77.33,1.01.5,1.14.65.46,2.23-.92,3.75-2.16L835.75,451.75c9.62-8.5,18.93-17.13,18.93-17.13l-37.35-39.96Z" transform="translate(-235.87393 -150.52732)" fill="#9f616a"/><path d="M838.95,255.55l-9.8-1.4-13.42-.37-10.31,6.48-5.57,14.12-3.95005,60.35v88.19l20.24,14.19,50.01-57.43c-1.48-3.8-2.52-7.33-3.17-10.51a84.49923,84.49923,0,0,1-1.37-27.76c.5-4.7.82-8.96,1.02-12.65,1.18-23.34-5.48-45.89-8.06-52.53-.86-2.24-1.4-3.46-1.4-3.46l-1.75-10.51Z" transform="translate(-235.87393 -150.52732)" fill="#e6e6e6"/><path d="M632.12385,380.29192l-.17284-.1377c-.0217-.01734-2.1943-1.76385-3.59522-5.14406-.7793-1.88562-1.16443-4.05-.1153-6.4552a9.903,9.903,0,0,1,4.40261-5.17935c2.92887-1.67433,6.45661-1.11568,10.48815,1.66117,6.9563,4.78786,15.58545,14.03906,17.742,18.32089l.40882.81124-.87634-.28469-.14941-.04969-.92575-.30432-.1369.89526-.82947,5.41553-.98665-.15106-.32971-.05032-16.72839-2.562-.19605-.02968Z" transform="translate(-235.87393 -150.52732)" fill="#00b98e"/><path d="M631.99817,249.22639l-11.23385-2.57467L606.90274,249.2977l-3.78615,12.71658-9.48375,13.21448-9.02375,64.68772-10.85352,87.45361,23.85,11.29,58.5-46.71c-2.17-3.48-3.83-6.66-4.94-9.66a85.30444,85.30444,0,0,1-6.14-28.56c-.15-5.33-.55-10.14-.93-14.42-2.29-26.84-12.82-49.83-16.48-57.39-1.23-2.56-1.95-3.98-1.95-3.98l.82-10.69Z" transform="translate(-235.87393 -150.52732)" fill="#e6e6e6"/><circle cx="481.5" cy="34" r="31" fill="#9f616a"/><path d="M747.5,215c-14.91-6.51-20.76-22.83-20.76-22.83s-9.7,16.22-24.61,22.73a33.10979,33.10979,0,0,0-31.58,43.28c4.77-10.8,15.16-17.22,15.16-17.22,9.91,9.06,3.43,22.93,23.92,13.62,12.25-5.55,19.68-4.8,24.17-1.53a33.00982,33.00982,0,0,0,13.7-38.05Z" transform="translate(-235.87393 -150.52732)" fill="#2f2e41"/><path d="M821.50586,343.57422a.57035.57035,0,0,1-.19141-.03223l-36.66015-12.665a.5.5,0,0,1-.34473-.59082l6.31347-33.76562a.50006.50006,0,0,1,.59082-.38867l36.66016,6.84863a.5.5,0,0,1,.39843.58594L822.0918,343.14453A.5.5,0,0,1,821.50586,343.57422Z" transform="translate(-235.87393 -150.52732)" fill="#e6e6e6"/><polygon points="584.058 188.28 547.585 175.653 552.867 146.215 585.747 152.203 584.058 188.28" fill="#f2f2f2"/><path d="M716.91876,403.62891l-2.2168-6.23c-1.876-4.96-5.3774-10.77667-11.17187-11.21765a9.52149,9.52149,0,0,0-9.73047,7.16015c-1.73389,6.87012,2.16015,13.98584,4.8418,17.5918l9.79443,13.23Z" transform="translate(-235.87393 -150.52732)" fill="#9f616a"/><circle cx="557.5" cy="74" r="31" fill="#9f616a"/><path d="M799.5,224c7.3-1.86-5.02-22.35-5.02-22.35s-17.29,12.49-24.59,14.35a33.11,33.11,0,0,0-30.35,44.05c6.71-9.67,18.01-14.33,18.01-14.33,7.51,11.09-2.86,22.74,20.35,18.83,13.83-2.34,20.66.11,24.23,4.54A33.01042,33.01042,0,0,0,799.5,224Z" transform="translate(-235.87393 -150.52732)" fill="#2f2e41"/><path d="M834.72754,323.45605a.57034.57034,0,0,1-.19141-.03222l-37.66015-13.665a.5.5,0,0,1-.34473-.59082l7.31347-34.76563a.5001.5001,0,0,1,.59082-.38867l37.66016,7.84864a.5.5,0,0,1,.39843.58593L835.31348,323.02637A.5.5,0,0,1,834.72754,323.45605Z" transform="translate(-235.87393 -150.52732)" fill="#e6e6e6"/><polygon points="598.308 167.687 560.856 154.026 567.134 123.58 601.003 130.568 598.308 167.687" fill="#f2f2f2"/></svg> 